# xmcd CD database file
#
# Track frame offsets:
#	150
#	1413
#	16584
#	29764
#	51831
#	83755
#	103400
#	119384
#	150052
#	165492
#	178441
#	194136
#
# Disc length: 2828 seconds
#
# Revision: 0
# Processed by: cddbd v1.5PL3 Copyright (c) Steve Scherf et al.
# Submitted via: CDex 1.51
#
DISCID=960b0a0c
DTITLE=Benny Valerio and Texas Thunder - Surrounded By The Blues
DYEAR=1997
DGENRE=Blues
TTITLE0=Intro: Wolf Talk
TTITLE1=Lik It 'n' Stik It
TTITLE2=Stop Being A Fool
TTITLE3=Mucho Mojo
TTITLE4=Texas Thunder
TTITLE5=Rollin' Up 290
TTITLE6=Burning Up The Night
TTITLE7=Love Me Or Leave Me
TTITLE8=Honey Bee
TTITLE9=I Got What You Need
TTITLE10=Satisfied
TTITLE11=Surrounded By The Blues
EXTD=YEAR: 1997
EXTT0=
EXTT1=
EXTT2=
EXTT3=
EXTT4=
EXTT5=
EXTT6=
EXTT7=
EXTT8=
EXTT9=
EXTT10=
EXTT11=
PLAYORDER=
